<?xml version="1.0" standalone="no"?>
<!DOCTYPE svg PUBLIC "-//W3C//DTD SVG 20010904//EN" "http://www.w3.org/TR/2001/REC-SVG-20010904/DTD/svg10.dtd">
<svg version="1.0" xmlns="http://www.w3.org/2000/svg" width="512pt" height="512pt" viewBox="0 0 512 512" preserveAspectRatio="xMidYMid meet">
    <g transform="translate(0.000000,512.000000) scale(0.100000,-0.100000)" fill="#000000" stroke="none">
        <path d="M2340 4480 c-494 -48 -950 -266 -1290 -615 -232 -238 -396 -530 -475
        -845 -52 -207 -60 -275 -60 -520 0 -245 8 -313 60 -520 79 -315 243 -607 475
        -845 238 -232 530 -396 845 -475 207 -52 275 -60 520 -60 245 0 313 8 520 60
        315 79 607 243 845 475 232 238 396 530 475 845 52 207 60 275 60 520 0 245
        -8 313 -60 520 -79 315 -243 607 -475 845 -237 231 -530 396 -840 475 -198
        50 -259 57 -495 60 -121 1 -239 1 -260 0z m475 -335 c305 -56 567 -186 795
        -395 229 -210 374 -463 445 -775 31 -136 31 -424 0 -560 -71 -312 -216 -565
        -445 -775 -228 -209 -490 -339 -795 -395 -136 -31 -424 -31 -560 0 -305 56
        -567 186 -795 395 -229 210 -374 463 -445 775 -31 136 -31 424 0 560 71 312
        216 565 445 775 228 209 490 339 795 395 136 31 424 31 560 0z"/>
        <path d="M2375 3574 c-16 -2 -73 -9 -125 -15 -520 -63 -970 -398 -1174 -875
        -92 -216 -131 -427 -122 -669 4 -115 10 -167 31 -255 138 -580 590 -1032
        1170 -1170 88 -21 140 -27 255 -31 242 -9 453 30 669 122 477 204 812 654
        875 1174 15 127 6 362 -20 479 -124 575 -578 1029 -1153 1153 -82 18 -349 33
        -406 23z m350 -334 c305 -56 567 -186 795 -395 229 -210 374 -463 445 -775
        31 -136 31 -424 0 -560 -71 -312 -216 -565 -445 -775 -228 -209 -490 -339
        -795 -395 -136 -31 -424 -31 -560 0 -305 56 -567 186 -795 395 -229 210 -374
        463 -445 775 -31 136 -31 424 0 560 71 312 216 565 445 775 228 209 490 339
        795 395 136 31 424 31 560 0z"/>
    </g>
</svg>
